<svg xmlns="http://www.w3.org/2000/svg" viewBox="0 0 512 512"><path d="M246.379 511.863c29.277 1.138 51.798-4.938 71.139-13.222 15.928-7.183 30.88-15.846 42.409-26.909 10.237-8.754 19.502-19.025 26.898-30.088 6.967-8.676 12.279-18.492 17.323-29.634 4.609-8.83 7.717-19.458 10.486-29.634 2.612-11.283 4.026-24.07 4.105-37.394.518-14.109-1.051-26.427-3.191-37.384-28.679-123.852-122.732-182.507-152.127-305.17-1.335-2.425-6.042-2.479-9.3-2.414-2.74.395-4.011 3.277-4.71 5.128-4.718 16.81-10.332 32.282-16.849 47.816-7.719 16.763-16.366 32.962-25.494 47.8-7.807 13.142-15.697 26.19-24.588 38.248-6.893 11.642-15.158 22.425-21.87 33.716-6.71 10.141-12.912 20.789-19.583 30.968-5.134 10.193-11.561 19.686-16.406 29.623-4.529 8.909-8.757 18.374-13.207 26.869-3.31 8.144-6.719 16.519-9.574 24.618-2.606 8.083-4.624 17.1-6.383 25.529-1.482 9.819-2.426 20.52-2.281 31.466.355 9.876 1.313 19.507 2.735 27.811.932 8.382 2.718 16.299 5.018 22.804 23.842 64.264 65.735 110.576 145.45 119.453m18.64-15.386c-2.107.925-7.111.173-10.439.446-6.19.26-12.37.037-16.822-.91 0 0-44.339-12.189-60.953-22.746-15.751-10.312-28.794-22.865-39.574-38.663-10.755-14.748-18.963-31.967-24.113-52.32-4.86-17.169-7.305-41.972-3.641-61.865 2.137-18.357 7.014-33.937 12.743-48.702 5.34-12.421 11.029-24.468 17.298-35.96 5.324-9.792 10.532-19.914 16.389-28.682 4.745-8.083 10.145-15.796 14.581-23.692 4.449-6.395 8.787-13.2 12.749-19.579a296 296 0 0 0 10.932-16.854c3.261-4.519 6.527-9.424 9.559-13.655 2.625-4.078 5.48-8.405 7.751-12.311 2.201-3.886 5.268-7.427 6.842-11.407 2.438-3.495 5.083-7.267 6.828-10.921 2.241-3.537 4.58-7.48 6.374-10.928 1.868-3.446 4.099-7.09 5.473-10.49 1.48-2.591 2.83-5.93 4.09-8.18.987-2.148 2.19-4.815 3.185-6.371.949-3.279 2.753-6.374 3.658-9.139 1.332-1.33 1.81-4.26 2.711-5.424.829-2.148 2.246-4.555 2.759-6.432.806-1.54 1.893-3.655 2.277-5.009.613-1.376.859-1.103 1.276-.477s.65 1.552.646 1.79c3.719 10.328 9.329 19.133 12.321 29.697l.613.366.456.456.274 1.366c27.625 55.238 63.741 100.006 93.847 151.3-.018 1.343 1.988 3.892 2.999 6.205s1.106 4.139-2.919 4.477c-.479.922-3.589.176-4.068.444l.23-.281c-10.297-1.882-20.965-4.512-32.051-6.102h-5.478v-.274c-2.977 0-6.789-.168-9.178-.168-.65.908-3.886.185-4.536.449-33.061 5.014-55.642 21.737-59.341 56.632l-.001 7.762c1.095 31.181 20.619 43.939 25.056 70.185-2.011.809-6.022.014-8.032.231l.191-.274c-13.881-2.439-27.547 4.097-39.336-3.369-1.56.667-3.671 2.529-3.84 5.179-.704 3.737 1.045 6.573 3.755 7.467 1.857 1.015 4.699 2.35 7.302 3.193 2.81.861 6.44 2.115 10.044 2.739 2.027.362 5.066 1.065 7.286 1.821 3.275.082 7.959.191 10.142-1.386 2.976-1.009 6.498-2.547 10.416-3.168 4.198-.732 8.98-2.074 11.929-4.594 3.367-2.655 5.654-7.609 4.618-15.195-1.411-5.231-3.39-10.958-6.406-15.107-1.858-4.475-4.806-8.813-7.28-13.197-2.498-3.989-4.951-8.974-7.282-13.654-2.153-5.108-4.056-11.319-4.538-18.617l-.635.024v-1.822h-.274c.104-.675-.011-1.819-.037-2.789-.027-.97-.146-1.585.311-1.585l.637-1.547c3.867-26.494 20.464-39.919 46.745-43.999l3.651-.001c2.065-.509 7.186-.743 8.586-.005 1.402 0 3.869.006 4.616.006 1.325-.219 2.306-.07 2.684.126.379.197.141.077-1.333-.033 14.533 1.233 31.416 7.969 46.046 2.179 2.444-.217 2.719 2.845 3.904 4.479.842 2.67 2.743 5.414 3.622 8.607 1.616 1.895 2.627 5.643 4.112 8.231.133 1.768 1.469 3.753 2.272 5.454.168 2.383 1.998 4.361 2.262 7.231 1.252 2.1 2 5.994 3.203 8.707.88 3.579 2.067 7.929 3.18 11.821 1.584 4.754 1.712 10.194 3.191 14.583.456 1.259.864 3.46.901 4.503.341 4.275 1.498 8.817 1.367 14.108.432 7.9.641 17.7 0 25.039-12.852 79.973-56.66 129.395-138.783 140.581"/><path fill="#d8b69f" d="M254.572 497.288c5.241.389 8.438.46 10.546-.465 82.122-11.181 126.193-60.913 139.044-140.882l.002-25.079c.131-5.291-1.027-9.873-1.368-14.148l-.454.028c-.658-.9-.455-3.641-.455-4.554-1.478-4.39-1.613-9.878-3.197-14.632-1.114-3.892-2.305-8.251-3.185-11.83-1.203-2.713-1.954-6.596-3.205-8.697-.264-2.869-2.087-4.83-2.256-7.213-.803-1.701-2.143-3.698-2.277-5.467-1.485-2.587-2.519-6.398-4.135-8.293-.879-3.192-2.776-5.933-3.617-8.603-1.185-1.634-1.867-4.89-4.311-4.673-14.63 5.79-31.42-.593-45.954-1.826l-1.374.181c-5.623 0-11.766-.181-16.852-.181l-.181-.274c-26.281 4.08-43.044 17.66-46.911 44.154l-.002 7.769c.481 7.298 2.416 13.636 4.569 18.745 2.332 4.68 4.802 9.698 7.3 13.688 2.474 4.383 5.418 8.712 7.276 13.186 3.016 4.15 4.955 9.773 6.367 15.004 1.036 7.585-1.126 12.187-4.493 14.842-2.95 2.52-7.561 3.785-11.758 4.517-3.918.621-7.548 2.195-10.524 3.204-2.183 1.577-6.637 1.433-9.911 1.351-2.221-.756-5.26-1.459-7.287-1.822-3.604-.624-7.188-1.867-9.998-2.727-2.603-.844-5.409-2.165-7.267-3.18-2.71-.894-4.244-3.353-3.539-7.089.169-2.65 1.891-4.195 3.451-4.863 11.789 7.466 25.287.75 39.168 3.188 2.661 0 6.229-.018 8.294-.018-4.437-26.246-23.854-39.136-24.949-70.316l-.456.012c.279-2.383.01-5.762.42-7.634 3.699-34.895 26.083-51.408 59.144-56.423 2.238-.315 3.252-.344 4.583-.472 1.584-.016 1.571-.078 2.183-.038.611.039 1.513-.02 2.592-.021 1.078-.001 2.729.137 4.599-.001 2.083.126 3.245.134 4.918.416 11.086 1.59 21.744 4.172 32.041 6.055 2.456.26 3.541 0 4.123 0 4.025-.338 4.175-2.654 3.164-4.966s-2.236-4.526-2.99-6.143c-30.106-51.295-66.253-96.107-93.878-151.345l-1.04.128-.911-.455-.911.455-.636.456c-9.206 14.819-16.399 31.926-25.932 45.901-7.362 13.131-15.474 25.52-23.684 37.804-6.653 10.966-13.802 21.951-20.497 32.339-6.023 9.463-11.981 18.99-18.218 28.238-5.052 8.996-10.924 17.446-15.494 26.432-4.847 7.523-9.087 15.933-13.209 23.685-3.145 7.545-7.184 14.552-9.577 22.347-2.818 6.648-5.101 14.178-7.287 20.95-1.752 7.868-3.976 15.668-4.108 24.648-1.399 9.541.23 18.967.456 27.79 14.109 72.537 56.789 116.458 124.048 136.817m77.385-195.29c-1.273.954-5.606.164-8.146.444l.192-.275c-14.938-1.607-26.2-6.609-34.252-15.644l-.363.159c.049-.498-.034-1.386-.03-2.105.003-.718-.063-1.087.329-.904 9.751-9.028 20.209 5.828 32.325 4.1h13.668c3.554-.674 7.712-1.471 9.64-3.212 2.855-.593 5.231-2.374 7.289-3.189 1.171-1.314 4.797-2.725 6.62-1.385 5.254 7.063 1.883 11.866-4.548 15.439-6.43 3.573-15.864 5.609-22.724 6.572"/><path d="M249.11 451.742h14.144c28.5-2.715 39.613-24.048 53.883-41.523.375-1.62-.656-3.822-2.419-3.932h-13.214l.182-.274c-9.613-3.332-16.003-10.983-27.035-13.389h-8.692c-3.014.656-6.418 2.221-9.193 3.674-.521.572-2.092.983-2.613.88l-.747-.73c-2.973-1.956-7.118-4.161-12.013-4.736h-4.571c-17.222 1.218-18.238 17.601-39.167 14.575-1.052.193-3.379 1.076-2.447 3.881.185 2.527 2.251 4.553 3.668 6.425 1.233 2.754 3.568 5.586 5.933 7.759.236 1.666 2.469 2.706 3.163 4.516 1.229.672 2.64 2.698 4.143 3.7.932 1.619 3.252 3.187 5.014 4.558 1.797 1.557 4.127 3.835 6.852 5.023 2.236 2.223 6.281 3.772 9.581 5.475 4.268 1.754 9.968 3.147 15.548 4.118m17.294-12.658c-4.084.843-10.68.214-15.91.451-13.627-.997-21.297-8.49-29.475-15.427-.021-.129-.788-.935-1.125-1.671s-.391-1.099 1.434-.757c2.133-.068 5.628-.119 7.719.452.675.104 1.857-.007 2.827-.033s1.585-.147 1.585.31c5.297.258 10.805 1.682 16.57 2.004 4.97.121 10.343.044 14.144-.456 5.986-.347 12.583-1.074 19.146-1.369 1.564-.541 6.24-.786 7.125-.05-3.844 8.402-11.694 15.102-24.04 16.546m-9.48-23.651c-.969-.026-2.127-.14-2.802-.036l.014-.275c-1.716 0-4.387-.181-5.466-.181v-.274h-.274c-2.089-1.045-7.339.114-8.723-1.053-1.205-.826-4.724-.367-6.007-.493-2.04-.405-5.269-.169-7.781-.12-2.513.049-4.184.191-3.48-.968 3.9-4.186 7.997-8.41 14.485-9.493.454-.306 1.708-.472 2.935-.485 1.227-.012 2.204.044 2.308.399 3.536.38 5.848 2.766 7.801 4.165 1.458.889 5.435.296 6.992.477 9.665-11.851 24.678-1.293 31.291 5.002 1.29.007 1.428.308 1.155.757-.273.448-2.024-.153-2.024-.153-.654 0-2.291-.131-2.241-.131-2.189 0-5.265-.363-6.839-.363-5.491.442-11.114 1.355-15.567 2.3-.48.923-4.806.952-5.777.925"/><path fill="#ac7f73" d="M266.404 439.084c-4.084.843-10.68.214-15.91.451-13.627-.997-21.297-8.49-29.475-15.427-.021-.129-.788-.935-1.125-1.671s-.391-1.099 1.434-.757c2.133-.068 5.628-.119 7.719.452.675.104 1.857-.007 2.827-.033s1.585-.147 1.585.31c5.297.258 10.805 1.682 16.57 2.004 4.97.121 10.343.044 14.144-.456 5.986-.347 12.583-1.074 19.146-1.369 1.564-.541 6.24-.786 7.125-.05-3.844 8.402-11.694 15.102-24.04 16.546m-9.48-23.651c-.969-.026-2.127-.14-2.802-.036 0 0-4.373-.152-5.452-.152 0 0-6.097-.072-8.997-1.631-1.205-.826-4.724-.367-6.007-.493-2.04-.405-5.269-.169-7.781-.12-2.513.049-4.184.191-3.48-.968 3.9-4.186 7.997-8.41 14.485-9.493.454-.306 1.708-.472 2.935-.485 1.227-.012 2.204.044 2.308.399 3.536.38 5.848 2.766 7.801 4.165 1.458.889 5.435.296 6.992.477 9.665-11.851 24.678-1.293 31.291 5.002 1.29.007 1.428.308 1.155.757-.273.448-1.988-.466-1.988-.466-.654 0-2.327.182-2.277.182-2.189 0-5.265-.363-6.839-.363-5.491.442-10.027 1.263-15.179 2.453-2.789.997-3.793.56-4.273.828 0 0-.921-.029-1.892-.056"/><path fill="#ac7f73" d="M250.49 439.899c5.229-.241 11.888.388 15.972-.46 12.346-1.443 20.4-8.505 24.245-16.907-2.347 0-5.688-.304-7.426-.304-6.562.295-13.176 1.024-19.162 1.37-3.628 1.377-9.785.749-14.086.908l.185-.274c-5.765-.322-11.277-1.746-16.574-2.004h-4.559l.182-.274c-2.092-.57-5.779-.704-7.911-.636-1.825-.342-2.129.534-1.792 1.27s1.123 1.552 1.145 1.68c8.178 6.938 16.153 14.634 29.781 15.631"/><path fill="#796759" d="M403.801 355.912c.641-7.339.612-17.332.18-25.232 0 7.88-.18 16.838-.18 25.232"/><path fill="#756456" d="m402.059 316.892.739-.15c-.037-1.042-.651-3.476-1.108-4.735-.001.913-.29 3.986.369 4.885"/><path fill="#947e6e" d="M324.003 302.623c2.539-.28 6.808.668 8.081-.286-2.662 0-6.198-.351-8.262-.351z"/><path fill="#050403" d="M323.812 302.349h8.221c6.86-.963 16.394-3.033 22.825-6.606 6.43-3.573 9.881-8.948 4.628-16.011-1.823-1.34-5.915.031-7.087 1.345-2.057.815-4.39 2.569-7.245 3.162-1.928 1.741-6.019 2.517-9.573 3.192-.649.909-3.924.204-4.574.467-.48.922-3.566.163-4.046.431l.049-.281c-1.559 0-4.098-.182-5.01-.182l-.182-.273c-12.116 1.727-22.538-13.251-32.289-4.223.538 1.13.34 2.472-.028 3.226 8.053 9.035 19.373 14.145 34.311 15.753"/><path fill="#2e2723" d="M327.191 288.503c.48-.267 3.564.599 4.044-.324-1.247 0-3.643-.312-4.225-.312z"/><path fill="#af9074" d="m268.255 70.337.455-.456z"/></svg>